<svg width="400" height="100" viewBox="0 0 400 100" fill="none" xmlns="http://www.w3.org/2000/svg">
<path d="M399 50C399 56.3317 393.843 62.6501 383.774 68.6014C373.772 74.5131 359.233 79.8717 341.179 84.3852C305.086 93.4084 255.171 99 200 99C144.829 99 94.914 93.4084 58.8212 84.3852C40.7671 79.8717 26.2277 74.5131 16.2258 68.6014C6.15704 62.6501 1 56.3317 1 50C1 43.6683 6.15704 37.3499 16.2258 31.3986C26.2277 25.4869 40.7671 20.1283 58.8212 15.6148C94.914 6.59161 144.829 1 200 1C255.171 1 305.086 6.59161 341.179 15.6148C359.233 20.1283 373.772 25.4869 383.774 31.3986C393.843 37.3499 399 43.6683 399 50Z" stroke="#333231" stroke-width="2"/>
<path d="M68.5 61H63.9688V37H68.5V61ZM80.0156 61.3125C77.5365 61.3125 75.5156 60.5521 73.9531 59.0312C72.401 57.5104 71.625 55.4844 71.625 52.9531V52.5156C71.625 50.8177 71.9531 49.3021 72.6094 47.9688C73.2656 46.625 74.1927 45.5938 75.3906 44.875C76.599 44.1458 77.974 43.7812 79.5156 43.7812C81.8281 43.7812 83.6458 44.5104 84.9688 45.9688C86.3021 47.4271 86.9688 49.4948 86.9688 52.1719V54.0156H76.2031C76.349 55.1198 76.7865 56.0052 77.5156 56.6719C78.2552 57.3385 79.1875 57.6719 80.3125 57.6719C82.0521 57.6719 83.4115 57.0417 84.3906 55.7812L86.6094 58.2656C85.9323 59.224 85.0156 59.974 83.8594 60.5156C82.7031 61.0469 81.4219 61.3125 80.0156 61.3125ZM79.5 47.4375C78.6042 47.4375 77.875 47.7396 77.3125 48.3438C76.7604 48.9479 76.4062 49.8125 76.25 50.9375H82.5312V50.5781C82.5104 49.5781 82.2396 48.8073 81.7188 48.2656C81.1979 47.7135 80.4583 47.4375 79.5 47.4375ZM94.9531 39.9375V44.0938H97.8438V47.4062H94.9531V55.8438C94.9531 56.4688 95.0729 56.9167 95.3125 57.1875C95.5521 57.4583 96.0104 57.5938 96.6875 57.5938C97.1875 57.5938 97.6302 57.5573 98.0156 57.4844V60.9062C97.1302 61.1771 96.2188 61.3125 95.2812 61.3125C92.1146 61.3125 90.5 59.7135 90.4375 56.5156V47.4062H87.9688V44.0938H90.4375V39.9375H94.9531ZM102.031 45.2344L99.9062 44C100.802 42.5938 101.266 41.1406 101.297 39.6406V37H104.891V39.4219C104.891 40.3594 104.63 41.375 104.109 42.4688C103.589 43.5625 102.896 44.4844 102.031 45.2344ZM113.609 56.3281C113.609 55.776 113.333 55.3438 112.781 55.0312C112.24 54.7083 111.365 54.4219 110.156 54.1719C106.135 53.3281 104.125 51.6198 104.125 49.0469C104.125 47.5469 104.745 46.2969 105.984 45.2969C107.234 44.2865 108.865 43.7812 110.875 43.7812C113.021 43.7812 114.734 44.2865 116.016 45.2969C117.307 46.3073 117.953 47.6198 117.953 49.2344H113.438C113.438 48.5885 113.229 48.0573 112.812 47.6406C112.396 47.2135 111.745 47 110.859 47C110.099 47 109.51 47.1719 109.094 47.5156C108.677 47.8594 108.469 48.2969 108.469 48.8281C108.469 49.3281 108.703 49.7344 109.172 50.0469C109.651 50.349 110.453 50.6146 111.578 50.8438C112.703 51.0625 113.651 51.3125 114.422 51.5938C116.807 52.4688 118 53.9844 118 56.1406C118 57.6823 117.339 58.9323 116.016 59.8906C114.693 60.8385 112.984 61.3125 110.891 61.3125C109.474 61.3125 108.214 61.0625 107.109 60.5625C106.016 60.0521 105.156 59.3594 104.531 58.4844C103.906 57.599 103.594 56.6458 103.594 55.625H107.875C107.917 56.4271 108.214 57.0417 108.766 57.4688C109.318 57.8958 110.057 58.1094 110.984 58.1094C111.849 58.1094 112.5 57.9479 112.938 57.625C113.385 57.2917 113.609 56.8594 113.609 56.3281ZM128.234 52.4219C128.234 49.8281 128.849 47.7396 130.078 46.1562C131.318 44.5729 132.984 43.7812 135.078 43.7812C136.932 43.7812 138.375 44.4167 139.406 45.6875L139.594 44.0938H143.688V60.4375C143.688 61.9167 143.349 63.2031 142.672 64.2969C142.005 65.3906 141.062 66.224 139.844 66.7969C138.625 67.3698 137.198 67.6562 135.562 67.6562C134.323 67.6562 133.115 67.4062 131.938 66.9062C130.76 66.4167 129.87 65.7812 129.266 65L131.266 62.25C132.391 63.5104 133.755 64.1406 135.359 64.1406C136.557 64.1406 137.49 63.8177 138.156 63.1719C138.823 62.5365 139.156 61.6302 139.156 60.4531V59.5469C138.115 60.724 136.745 61.3125 135.047 61.3125C133.016 61.3125 131.37 60.5208 130.109 58.9375C128.859 57.3438 128.234 55.2344 128.234 52.6094V52.4219ZM132.75 52.75C132.75 54.2812 133.057 55.4844 133.672 56.3594C134.286 57.224 135.13 57.6562 136.203 57.6562C137.578 57.6562 138.562 57.1406 139.156 56.1094V49C138.552 47.9688 137.578 47.4531 136.234 47.4531C135.151 47.4531 134.297 47.8958 133.672 48.7812C133.057 49.6667 132.75 50.9896 132.75 52.75ZM154.953 61.3125C152.474 61.3125 150.453 60.5521 148.891 59.0312C147.339 57.5104 146.562 55.4844 146.562 52.9531V52.5156C146.562 50.8177 146.891 49.3021 147.547 47.9688C148.203 46.625 149.13 45.5938 150.328 44.875C151.536 44.1458 152.911 43.7812 154.453 43.7812C156.766 43.7812 158.583 44.5104 159.906 45.9688C161.24 47.4271 161.906 49.4948 161.906 52.1719V54.0156H151.141C151.286 55.1198 151.724 56.0052 152.453 56.6719C153.193 57.3385 154.125 57.6719 155.25 57.6719C156.99 57.6719 158.349 57.0417 159.328 55.7812L161.547 58.2656C160.87 59.224 159.953 59.974 158.797 60.5156C157.641 61.0469 156.359 61.3125 154.953 61.3125ZM154.438 47.4375C153.542 47.4375 152.812 47.7396 152.25 48.3438C151.698 48.9479 151.344 49.8125 151.188 50.9375H157.469V50.5781C157.448 49.5781 157.177 48.8073 156.656 48.2656C156.135 47.7135 155.396 47.4375 154.438 47.4375ZM169.891 39.9375V44.0938H172.781V47.4062H169.891V55.8438C169.891 56.4688 170.01 56.9167 170.25 57.1875C170.49 57.4583 170.948 57.5938 171.625 57.5938C172.125 57.5938 172.568 57.5573 172.953 57.4844V60.9062C172.068 61.1771 171.156 61.3125 170.219 61.3125C167.052 61.3125 165.438 59.7135 165.375 56.5156V47.4062H162.906V44.0938H165.375V39.9375H169.891ZM188.031 61H183.5V44.0938H188.031V61ZM183.234 39.7188C183.234 39.0417 183.458 38.4844 183.906 38.0469C184.365 37.6094 184.984 37.3906 185.766 37.3906C186.536 37.3906 187.151 37.6094 187.609 38.0469C188.068 38.4844 188.297 39.0417 188.297 39.7188C188.297 40.4062 188.062 40.9688 187.594 41.4062C187.135 41.8438 186.526 42.0625 185.766 42.0625C185.005 42.0625 184.391 41.8438 183.922 41.4062C183.464 40.9688 183.234 40.4062 183.234 39.7188ZM195.922 44.0938L196.062 46.0469C197.271 44.5365 198.891 43.7812 200.922 43.7812C202.714 43.7812 204.047 44.3073 204.922 45.3594C205.797 46.4115 206.245 47.9844 206.266 50.0781V61H201.75V50.1875C201.75 49.2292 201.542 48.5365 201.125 48.1094C200.708 47.6719 200.016 47.4531 199.047 47.4531C197.776 47.4531 196.823 47.9948 196.188 49.0781V61H191.672V44.0938H195.922ZM223.078 39.9375V44.0938H225.969V47.4062H223.078V55.8438C223.078 56.4688 223.198 56.9167 223.438 57.1875C223.677 57.4583 224.135 57.5938 224.812 57.5938C225.312 57.5938 225.755 57.5573 226.141 57.4844V60.9062C225.255 61.1771 224.344 61.3125 223.406 61.3125C220.24 61.3125 218.625 59.7135 218.562 56.5156V47.4062H216.094V44.0938H218.562V39.9375H223.078ZM227.312 52.3906C227.312 50.7135 227.635 49.2188 228.281 47.9062C228.927 46.5938 229.854 45.5781 231.062 44.8594C232.281 44.1406 233.693 43.7812 235.297 43.7812C237.578 43.7812 239.438 44.4792 240.875 45.875C242.323 47.2708 243.13 49.1667 243.297 51.5625L243.328 52.7188C243.328 55.3125 242.604 57.3958 241.156 58.9688C239.708 60.5312 237.766 61.3125 235.328 61.3125C232.891 61.3125 230.943 60.5312 229.484 58.9688C228.036 57.4062 227.312 55.2812 227.312 52.5938V52.3906ZM231.828 52.7188C231.828 54.3229 232.13 55.5521 232.734 56.4062C233.339 57.25 234.203 57.6719 235.328 57.6719C236.422 57.6719 237.276 57.2552 237.891 56.4219C238.505 55.5781 238.812 54.2344 238.812 52.3906C238.812 50.8177 238.505 49.599 237.891 48.7344C237.276 47.8698 236.411 47.4375 235.297 47.4375C234.193 47.4375 233.339 47.8698 232.734 48.7344C232.13 49.5885 231.828 50.9167 231.828 52.7188ZM256.234 59.2812C255.12 60.6354 253.578 61.3125 251.609 61.3125C249.797 61.3125 248.411 60.7917 247.453 59.75C246.505 58.7083 246.021 57.1823 246 55.1719V44.0938H250.516V55.0156C250.516 56.776 251.318 57.6562 252.922 57.6562C254.453 57.6562 255.505 57.125 256.078 56.0625V44.0938H260.609V61H256.359L256.234 59.2812ZM271.047 57.6719C271.88 57.6719 272.557 57.4427 273.078 56.9844C273.599 56.526 273.87 55.9167 273.891 55.1562H278.125C278.115 56.3021 277.802 57.3542 277.188 58.3125C276.573 59.2604 275.729 60 274.656 60.5312C273.594 61.0521 272.417 61.3125 271.125 61.3125C268.708 61.3125 266.802 60.5469 265.406 59.0156C264.01 57.474 263.312 55.349 263.312 52.6406V52.3438C263.312 49.7396 264.005 47.6615 265.391 46.1094C266.776 44.5573 268.677 43.7812 271.094 43.7812C273.208 43.7812 274.901 44.3854 276.172 45.5938C277.453 46.7917 278.104 48.3906 278.125 50.3906H273.891C273.87 49.5156 273.599 48.8073 273.078 48.2656C272.557 47.7135 271.87 47.4375 271.016 47.4375C269.964 47.4375 269.167 47.8229 268.625 48.5938C268.094 49.3542 267.828 50.5938 267.828 52.3125V52.7812C267.828 54.5208 268.094 55.7708 268.625 56.5312C269.156 57.2917 269.964 57.6719 271.047 57.6719ZM285.109 45.9375C286.307 44.5 287.812 43.7812 289.625 43.7812C293.292 43.7812 295.151 45.9115 295.203 50.1719V61H290.688V50.2969C290.688 49.3281 290.479 48.6146 290.062 48.1562C289.646 47.6875 288.953 47.4531 287.984 47.4531C286.661 47.4531 285.703 47.9635 285.109 48.9844V61H280.594V37H285.109V45.9375ZM325.228 54.28C325.654 53.1493 326.177 52.1787 326.796 51.368H309.644V48.744H326.796C326.198 47.9333 325.686 46.9627 325.26 45.832H327.692C329.014 47.3893 330.465 48.5733 332.044 49.384V50.76C330.465 51.528 329.014 52.7013 327.692 54.28H325.228Z" fill="#333231"/>
</svg>
