<svg width="400" height="100" viewBox="0 0 400 100" fill="none" xmlns="http://www.w3.org/2000/svg">
<path d="M399 50C399 56.3317 393.843 62.6501 383.774 68.6014C373.772 74.5131 359.233 79.8717 341.179 84.3852C305.086 93.4084 255.171 99 200 99C144.829 99 94.914 93.4084 58.8212 84.3852C40.7671 79.8717 26.2277 74.5131 16.2258 68.6014C6.15704 62.6501 1 56.3317 1 50C1 43.6683 6.15704 37.3499 16.2258 31.3986C26.2277 25.4869 40.7671 20.1283 58.8212 15.6148C94.914 6.59161 144.829 1 200 1C255.171 1 305.086 6.59161 341.179 15.6148C359.233 20.1283 373.772 25.4869 383.774 31.3986C393.843 37.3499 399 43.6683 399 50Z" stroke="#333231" stroke-width="2"/>
<path d="M71.0312 52.4219C71.0312 49.7865 71.6198 47.6875 72.7969 46.125C73.9844 44.5625 75.6042 43.7812 77.6562 43.7812C79.3021 43.7812 80.6615 44.3958 81.7344 45.625V37H86.2656V61H82.1875L81.9688 59.2031C80.8438 60.6094 79.3958 61.3125 77.625 61.3125C75.6354 61.3125 74.0365 60.5312 72.8281 58.9688C71.6302 57.3958 71.0312 55.2135 71.0312 52.4219ZM75.5469 52.75C75.5469 54.3333 75.8229 55.5469 76.375 56.3906C76.9271 57.2344 77.7292 57.6562 78.7812 57.6562C80.1771 57.6562 81.1615 57.0677 81.7344 55.8906V49.2188C81.1719 48.0417 80.1979 47.4531 78.8125 47.4531C76.6354 47.4531 75.5469 49.2188 75.5469 52.75ZM89.0625 52.3906C89.0625 50.7135 89.3854 49.2188 90.0312 47.9062C90.6771 46.5938 91.6042 45.5781 92.8125 44.8594C94.0312 44.1406 95.4427 43.7812 97.0469 43.7812C99.3281 43.7812 101.188 44.4792 102.625 45.875C104.073 47.2708 104.88 49.1667 105.047 51.5625L105.078 52.7188C105.078 55.3125 104.354 57.3958 102.906 58.9688C101.458 60.5312 99.5156 61.3125 97.0781 61.3125C94.6406 61.3125 92.6927 60.5312 91.2344 58.9688C89.7865 57.4062 89.0625 55.2812 89.0625 52.5938V52.3906ZM93.5781 52.7188C93.5781 54.3229 93.8802 55.5521 94.4844 56.4062C95.0885 57.25 95.9531 57.6719 97.0781 57.6719C98.1719 57.6719 99.026 57.2552 99.6406 56.4219C100.255 55.5781 100.562 54.2344 100.562 52.3906C100.562 50.8177 100.255 49.599 99.6406 48.7344C99.026 47.8698 98.1615 47.4375 97.0469 47.4375C95.9427 47.4375 95.0885 47.8698 94.4844 48.7344C93.8802 49.5885 93.5781 50.9167 93.5781 52.7188ZM112.016 44.0938L112.156 46.0469C113.365 44.5365 114.984 43.7812 117.016 43.7812C118.807 43.7812 120.141 44.3073 121.016 45.3594C121.891 46.4115 122.339 47.9844 122.359 50.0781V61H117.844V50.1875C117.844 49.2292 117.635 48.5365 117.219 48.1094C116.802 47.6719 116.109 47.4531 115.141 47.4531C113.87 47.4531 112.917 47.9948 112.281 49.0781V61H107.766V44.0938H112.016ZM135.594 61C135.385 60.5938 135.234 60.0885 135.141 59.4844C134.047 60.7031 132.625 61.3125 130.875 61.3125C129.219 61.3125 127.844 60.8333 126.75 59.875C125.667 58.9167 125.125 57.7083 125.125 56.25C125.125 54.4583 125.786 53.0833 127.109 52.125C128.443 51.1667 130.365 50.6823 132.875 50.6719H134.953V49.7031C134.953 48.9219 134.75 48.2969 134.344 47.8281C133.948 47.3594 133.318 47.125 132.453 47.125C131.693 47.125 131.094 47.3073 130.656 47.6719C130.229 48.0365 130.016 48.5365 130.016 49.1719H125.5C125.5 48.1927 125.802 47.2865 126.406 46.4531C127.01 45.6198 127.865 44.9688 128.969 44.5C130.073 44.0208 131.312 43.7812 132.688 43.7812C134.771 43.7812 136.422 44.3073 137.641 45.3594C138.87 46.401 139.484 47.8698 139.484 49.7656V57.0938C139.495 58.6979 139.719 59.9115 140.156 60.7344V61H135.594ZM131.859 57.8594C132.526 57.8594 133.141 57.7135 133.703 57.4219C134.266 57.1198 134.682 56.7188 134.953 56.2188V53.3125H133.266C131.005 53.3125 129.802 54.0938 129.656 55.6562L129.641 55.9219C129.641 56.4844 129.839 56.9479 130.234 57.3125C130.63 57.6771 131.172 57.8594 131.859 57.8594ZM148.359 39.9375V44.0938H151.25V47.4062H148.359V55.8438C148.359 56.4688 148.479 56.9167 148.719 57.1875C148.958 57.4583 149.417 57.5938 150.094 57.5938C150.594 57.5938 151.036 57.5573 151.422 57.4844V60.9062C150.536 61.1771 149.625 61.3125 148.688 61.3125C145.521 61.3125 143.906 59.7135 143.844 56.5156V47.4062H141.375V44.0938H143.844V39.9375H148.359ZM158.531 61H154V44.0938H158.531V61ZM153.734 39.7188C153.734 39.0417 153.958 38.4844 154.406 38.0469C154.865 37.6094 155.484 37.3906 156.266 37.3906C157.036 37.3906 157.651 37.6094 158.109 38.0469C158.568 38.4844 158.797 39.0417 158.797 39.7188C158.797 40.4062 158.562 40.9688 158.094 41.4062C157.635 41.8438 157.026 42.0625 156.266 42.0625C155.505 42.0625 154.891 41.8438 154.422 41.4062C153.964 40.9688 153.734 40.4062 153.734 39.7188ZM161.562 52.3906C161.562 50.7135 161.885 49.2188 162.531 47.9062C163.177 46.5938 164.104 45.5781 165.312 44.8594C166.531 44.1406 167.943 43.7812 169.547 43.7812C171.828 43.7812 173.688 44.4792 175.125 45.875C176.573 47.2708 177.38 49.1667 177.547 51.5625L177.578 52.7188C177.578 55.3125 176.854 57.3958 175.406 58.9688C173.958 60.5312 172.016 61.3125 169.578 61.3125C167.141 61.3125 165.193 60.5312 163.734 58.9688C162.286 57.4062 161.562 55.2812 161.562 52.5938V52.3906ZM166.078 52.7188C166.078 54.3229 166.38 55.5521 166.984 56.4062C167.589 57.25 168.453 57.6719 169.578 57.6719C170.672 57.6719 171.526 57.2552 172.141 56.4219C172.755 55.5781 173.062 54.2344 173.062 52.3906C173.062 50.8177 172.755 49.599 172.141 48.7344C171.526 47.8698 170.661 47.4375 169.547 47.4375C168.443 47.4375 167.589 47.8698 166.984 48.7344C166.38 49.5885 166.078 50.9167 166.078 52.7188ZM184.516 44.0938L184.656 46.0469C185.865 44.5365 187.484 43.7812 189.516 43.7812C191.307 43.7812 192.641 44.3073 193.516 45.3594C194.391 46.4115 194.839 47.9844 194.859 50.0781V61H190.344V50.1875C190.344 49.2292 190.135 48.5365 189.719 48.1094C189.302 47.6719 188.609 47.4531 187.641 47.4531C186.37 47.4531 185.417 47.9948 184.781 49.0781V61H180.266V44.0938H184.516ZM221.484 52.7031C221.484 55.3073 220.891 57.3958 219.703 58.9688C218.526 60.5312 216.932 61.3125 214.922 61.3125C213.214 61.3125 211.833 60.7188 210.781 59.5312V67.5H206.266V44.0938H210.453L210.609 45.75C211.703 44.4375 213.13 43.7812 214.891 43.7812C216.974 43.7812 218.594 44.5521 219.75 46.0938C220.906 47.6354 221.484 49.7604 221.484 52.4688V52.7031ZM216.969 52.375C216.969 50.8021 216.688 49.5885 216.125 48.7344C215.573 47.8802 214.766 47.4531 213.703 47.4531C212.286 47.4531 211.312 47.9948 210.781 49.0781V56C211.333 57.1146 212.318 57.6719 213.734 57.6719C215.891 57.6719 216.969 55.9062 216.969 52.375ZM223.594 52.3906C223.594 50.7135 223.917 49.2188 224.562 47.9062C225.208 46.5938 226.135 45.5781 227.344 44.8594C228.562 44.1406 229.974 43.7812 231.578 43.7812C233.859 43.7812 235.719 44.4792 237.156 45.875C238.604 47.2708 239.411 49.1667 239.578 51.5625L239.609 52.7188C239.609 55.3125 238.885 57.3958 237.438 58.9688C235.99 60.5312 234.047 61.3125 231.609 61.3125C229.172 61.3125 227.224 60.5312 225.766 58.9688C224.318 57.4062 223.594 55.2812 223.594 52.5938V52.3906ZM228.109 52.7188C228.109 54.3229 228.411 55.5521 229.016 56.4062C229.62 57.25 230.484 57.6719 231.609 57.6719C232.703 57.6719 233.557 57.2552 234.172 56.4219C234.786 55.5781 235.094 54.2344 235.094 52.3906C235.094 50.8177 234.786 49.599 234.172 48.7344C233.557 47.8698 232.693 47.4375 231.578 47.4375C230.474 47.4375 229.62 47.8698 229.016 48.7344C228.411 49.5885 228.109 50.9167 228.109 52.7188ZM251.891 48.3281C251.276 48.2448 250.734 48.2031 250.266 48.2031C248.557 48.2031 247.438 48.7812 246.906 49.9375V61H242.391V44.0938H246.656L246.781 46.1094C247.688 44.5573 248.943 43.7812 250.547 43.7812C251.047 43.7812 251.516 43.849 251.953 43.9844L251.891 48.3281ZM260.266 39.9375V44.0938H263.156V47.4062H260.266V55.8438C260.266 56.4688 260.385 56.9167 260.625 57.1875C260.865 57.4583 261.323 57.5938 262 57.5938C262.5 57.5938 262.943 57.5573 263.328 57.4844V60.9062C262.443 61.1771 261.531 61.3125 260.594 61.3125C257.427 61.3125 255.812 59.7135 255.75 56.5156V47.4062H253.281V44.0938H255.75V39.9375H260.266ZM275.469 61C275.26 60.5938 275.109 60.0885 275.016 59.4844C273.922 60.7031 272.5 61.3125 270.75 61.3125C269.094 61.3125 267.719 60.8333 266.625 59.875C265.542 58.9167 265 57.7083 265 56.25C265 54.4583 265.661 53.0833 266.984 52.125C268.318 51.1667 270.24 50.6823 272.75 50.6719H274.828V49.7031C274.828 48.9219 274.625 48.2969 274.219 47.8281C273.823 47.3594 273.193 47.125 272.328 47.125C271.568 47.125 270.969 47.3073 270.531 47.6719C270.104 48.0365 269.891 48.5365 269.891 49.1719H265.375C265.375 48.1927 265.677 47.2865 266.281 46.4531C266.885 45.6198 267.74 44.9688 268.844 44.5C269.948 44.0208 271.188 43.7812 272.562 43.7812C274.646 43.7812 276.297 44.3073 277.516 45.3594C278.745 46.401 279.359 47.8698 279.359 49.7656V57.0938C279.37 58.6979 279.594 59.9115 280.031 60.7344V61H275.469ZM271.734 57.8594C272.401 57.8594 273.016 57.7135 273.578 57.4219C274.141 57.1198 274.557 56.7188 274.828 56.2188V53.3125H273.141C270.88 53.3125 269.677 54.0938 269.531 55.6562L269.516 55.9219C269.516 56.4844 269.714 56.9479 270.109 57.3125C270.505 57.6771 271.047 57.8594 271.734 57.8594ZM287.594 61H283.062V37H287.594V61ZM317.947 54.28C318.373 53.1493 318.896 52.1787 319.515 51.368H302.363V48.744H319.515C318.917 47.9333 318.405 46.9627 317.979 45.832H320.411C321.733 47.3893 323.184 48.5733 324.763 49.384V50.76C323.184 51.528 321.733 52.7013 320.411 54.28H317.947Z" fill="#333231"/>
</svg>
