<svg width="400" height="100" viewBox="0 0 400 100" fill="none" xmlns="http://www.w3.org/2000/svg">
<path d="M399 50C399 56.3317 393.843 62.6501 383.774 68.6014C373.772 74.5131 359.233 79.8717 341.179 84.3852C305.086 93.4084 255.171 99 200 99C144.829 99 94.914 93.4084 58.8212 84.3852C40.7671 79.8717 26.2277 74.5131 16.2258 68.6014C6.15704 62.6501 1 56.3317 1 50C1 43.6683 6.15704 37.3499 16.2258 31.3986C26.2277 25.4869 40.7671 20.1283 58.8212 15.6148C94.914 6.59161 144.829 1 200 1C255.171 1 305.086 6.59161 341.179 15.6148C359.233 20.1283 373.772 25.4869 383.774 31.3986C393.843 37.3499 399 43.6683 399 50Z" stroke="#333231" stroke-width="2"/>
<path d="M131.031 52.4219C131.031 49.7865 131.62 47.6875 132.797 46.125C133.984 44.5625 135.604 43.7812 137.656 43.7812C139.302 43.7812 140.661 44.3958 141.734 45.625V37H146.266V61H142.188L141.969 59.2031C140.844 60.6094 139.396 61.3125 137.625 61.3125C135.635 61.3125 134.036 60.5312 132.828 58.9688C131.63 57.3958 131.031 55.2135 131.031 52.4219ZM135.547 52.75C135.547 54.3333 135.823 55.5469 136.375 56.3906C136.927 57.2344 137.729 57.6562 138.781 57.6562C140.177 57.6562 141.161 57.0677 141.734 55.8906V49.2188C141.172 48.0417 140.198 47.4531 138.812 47.4531C136.635 47.4531 135.547 49.2188 135.547 52.75ZM149.062 52.3906C149.062 50.7135 149.385 49.2188 150.031 47.9062C150.677 46.5938 151.604 45.5781 152.812 44.8594C154.031 44.1406 155.443 43.7812 157.047 43.7812C159.328 43.7812 161.188 44.4792 162.625 45.875C164.073 47.2708 164.88 49.1667 165.047 51.5625L165.078 52.7188C165.078 55.3125 164.354 57.3958 162.906 58.9688C161.458 60.5312 159.516 61.3125 157.078 61.3125C154.641 61.3125 152.693 60.5312 151.234 58.9688C149.786 57.4062 149.062 55.2812 149.062 52.5938V52.3906ZM153.578 52.7188C153.578 54.3229 153.88 55.5521 154.484 56.4062C155.089 57.25 155.953 57.6719 157.078 57.6719C158.172 57.6719 159.026 57.2552 159.641 56.4219C160.255 55.5781 160.562 54.2344 160.562 52.3906C160.562 50.8177 160.255 49.599 159.641 48.7344C159.026 47.8698 158.161 47.4375 157.047 47.4375C155.943 47.4375 155.089 47.8698 154.484 48.7344C153.88 49.5885 153.578 50.9167 153.578 52.7188ZM172.016 44.0938L172.156 46.0469C173.365 44.5365 174.984 43.7812 177.016 43.7812C178.807 43.7812 180.141 44.3073 181.016 45.3594C181.891 46.4115 182.339 47.9844 182.359 50.0781V61H177.844V50.1875C177.844 49.2292 177.635 48.5365 177.219 48.1094C176.802 47.6719 176.109 47.4531 175.141 47.4531C173.87 47.4531 172.917 47.9948 172.281 49.0781V61H167.766V44.0938H172.016ZM195.594 61C195.385 60.5938 195.234 60.0885 195.141 59.4844C194.047 60.7031 192.625 61.3125 190.875 61.3125C189.219 61.3125 187.844 60.8333 186.75 59.875C185.667 58.9167 185.125 57.7083 185.125 56.25C185.125 54.4583 185.786 53.0833 187.109 52.125C188.443 51.1667 190.365 50.6823 192.875 50.6719H194.953V49.7031C194.953 48.9219 194.75 48.2969 194.344 47.8281C193.948 47.3594 193.318 47.125 192.453 47.125C191.693 47.125 191.094 47.3073 190.656 47.6719C190.229 48.0365 190.016 48.5365 190.016 49.1719H185.5C185.5 48.1927 185.802 47.2865 186.406 46.4531C187.01 45.6198 187.865 44.9688 188.969 44.5C190.073 44.0208 191.312 43.7812 192.688 43.7812C194.771 43.7812 196.422 44.3073 197.641 45.3594C198.87 46.401 199.484 47.8698 199.484 49.7656V57.0938C199.495 58.6979 199.719 59.9115 200.156 60.7344V61H195.594ZM191.859 57.8594C192.526 57.8594 193.141 57.7135 193.703 57.4219C194.266 57.1198 194.682 56.7188 194.953 56.2188V53.3125H193.266C191.005 53.3125 189.802 54.0938 189.656 55.6562L189.641 55.9219C189.641 56.4844 189.839 56.9479 190.234 57.3125C190.63 57.6771 191.172 57.8594 191.859 57.8594ZM208.359 39.9375V44.0938H211.25V47.4062H208.359V55.8438C208.359 56.4688 208.479 56.9167 208.719 57.1875C208.958 57.4583 209.417 57.5938 210.094 57.5938C210.594 57.5938 211.036 57.5573 211.422 57.4844V60.9062C210.536 61.1771 209.625 61.3125 208.688 61.3125C205.521 61.3125 203.906 59.7135 203.844 56.5156V47.4062H201.375V44.0938H203.844V39.9375H208.359ZM221.547 61.3125C219.068 61.3125 217.047 60.5521 215.484 59.0312C213.932 57.5104 213.156 55.4844 213.156 52.9531V52.5156C213.156 50.8177 213.484 49.3021 214.141 47.9688C214.797 46.625 215.724 45.5938 216.922 44.875C218.13 44.1458 219.505 43.7812 221.047 43.7812C223.359 43.7812 225.177 44.5104 226.5 45.9688C227.833 47.4271 228.5 49.4948 228.5 52.1719V54.0156H217.734C217.88 55.1198 218.318 56.0052 219.047 56.6719C219.786 57.3385 220.719 57.6719 221.844 57.6719C223.583 57.6719 224.943 57.0417 225.922 55.7812L228.141 58.2656C227.464 59.224 226.547 59.974 225.391 60.5156C224.234 61.0469 222.953 61.3125 221.547 61.3125ZM221.031 47.4375C220.135 47.4375 219.406 47.7396 218.844 48.3438C218.292 48.9479 217.938 49.8125 217.781 50.9375H224.062V50.5781C224.042 49.5781 223.771 48.8073 223.25 48.2656C222.729 47.7135 221.99 47.4375 221.031 47.4375ZM257.697 54.28C258.123 53.1493 258.646 52.1787 259.265 51.368H242.113V48.744H259.265C258.667 47.9333 258.155 46.9627 257.729 45.832H260.161C261.483 47.3893 262.934 48.5733 264.513 49.384V50.76C262.934 51.528 261.483 52.7013 260.161 54.28H257.697Z" fill="#333231"/>
</svg>
