<svg width="400" height="100" viewBox="0 0 400 100" fill="none" xmlns="http://www.w3.org/2000/svg">
<path d="M399 50C399 56.3317 393.843 62.6501 383.774 68.6014C373.772 74.5131 359.233 79.8717 341.179 84.3852C305.086 93.4084 255.171 99 200 99C144.829 99 94.914 93.4084 58.8212 84.3852C40.7671 79.8717 26.2277 74.5131 16.2258 68.6014C6.15704 62.6501 1 56.3317 1 50C1 43.6683 6.15704 37.3499 16.2258 31.3986C26.2277 25.4869 40.7671 20.1283 58.8212 15.6148C94.914 6.59161 144.829 1 200 1C255.171 1 305.086 6.59161 341.179 15.6148C359.233 20.1283 373.772 25.4869 383.774 31.3986C393.843 37.3499 399 43.6683 399 50Z" stroke="#333231" stroke-width="2"/>
<path d="M81.5156 61.3125C79.0365 61.3125 77.0156 60.5521 75.4531 59.0312C73.901 57.5104 73.125 55.4844 73.125 52.9531V52.5156C73.125 50.8177 73.4531 49.3021 74.1094 47.9688C74.7656 46.625 75.6927 45.5938 76.8906 44.875C78.099 44.1458 79.474 43.7812 81.0156 43.7812C83.3281 43.7812 85.1458 44.5104 86.4688 45.9688C87.8021 47.4271 88.4688 49.4948 88.4688 52.1719V54.0156H77.7031C77.849 55.1198 78.2865 56.0052 79.0156 56.6719C79.7552 57.3385 80.6875 57.6719 81.8125 57.6719C83.5521 57.6719 84.9115 57.0417 85.8906 55.7812L88.1094 58.2656C87.4323 59.224 86.5156 59.974 85.3594 60.5156C84.2031 61.0469 82.9219 61.3125 81.5156 61.3125ZM81 47.4375C80.1042 47.4375 79.375 47.7396 78.8125 48.3438C78.2604 48.9479 77.9062 49.8125 77.75 50.9375H84.0312V50.5781C84.0104 49.5781 83.7396 48.8073 83.2188 48.2656C82.6979 47.7135 81.9583 47.4375 81 47.4375ZM95.2812 44.0938L95.4219 45.9844C96.6198 44.5156 98.2396 43.7812 100.281 43.7812C102.458 43.7812 103.953 44.6406 104.766 46.3594C105.953 44.6406 107.646 43.7812 109.844 43.7812C111.677 43.7812 113.042 44.3177 113.938 45.3906C114.833 46.4531 115.281 48.0573 115.281 50.2031V61H110.75V50.2188C110.75 49.2604 110.562 48.5625 110.188 48.125C109.812 47.6771 109.151 47.4531 108.203 47.4531C106.849 47.4531 105.911 48.099 105.391 49.3906L105.406 61H100.891V50.2344C100.891 49.2552 100.698 48.5469 100.312 48.1094C99.9271 47.6719 99.2708 47.4531 98.3438 47.4531C97.0625 47.4531 96.1354 47.9844 95.5625 49.0469V61H91.0469V44.0938H95.2812ZM128.562 61C128.354 60.5938 128.203 60.0885 128.109 59.4844C127.016 60.7031 125.594 61.3125 123.844 61.3125C122.188 61.3125 120.812 60.8333 119.719 59.875C118.635 58.9167 118.094 57.7083 118.094 56.25C118.094 54.4583 118.755 53.0833 120.078 52.125C121.411 51.1667 123.333 50.6823 125.844 50.6719H127.922V49.7031C127.922 48.9219 127.719 48.2969 127.312 47.8281C126.917 47.3594 126.286 47.125 125.422 47.125C124.661 47.125 124.062 47.3073 123.625 47.6719C123.198 48.0365 122.984 48.5365 122.984 49.1719H118.469C118.469 48.1927 118.771 47.2865 119.375 46.4531C119.979 45.6198 120.833 44.9688 121.938 44.5C123.042 44.0208 124.281 43.7812 125.656 43.7812C127.74 43.7812 129.391 44.3073 130.609 45.3594C131.839 46.401 132.453 47.8698 132.453 49.7656V57.0938C132.464 58.6979 132.688 59.9115 133.125 60.7344V61H128.562ZM124.828 57.8594C125.495 57.8594 126.109 57.7135 126.672 57.4219C127.234 57.1198 127.651 56.7188 127.922 56.2188V53.3125H126.234C123.974 53.3125 122.771 54.0938 122.625 55.6562L122.609 55.9219C122.609 56.4844 122.807 56.9479 123.203 57.3125C123.599 57.6771 124.141 57.8594 124.828 57.8594ZM140.688 61H136.156V44.0938H140.688V61ZM135.891 39.7188C135.891 39.0417 136.115 38.4844 136.562 38.0469C137.021 37.6094 137.641 37.3906 138.422 37.3906C139.193 37.3906 139.807 37.6094 140.266 38.0469C140.724 38.4844 140.953 39.0417 140.953 39.7188C140.953 40.4062 140.719 40.9688 140.25 41.4062C139.792 41.8438 139.182 42.0625 138.422 42.0625C137.661 42.0625 137.047 41.8438 136.578 41.4062C136.12 40.9688 135.891 40.4062 135.891 39.7188ZM149.188 61H144.656V37H149.188V61ZM160.188 52.3906C160.188 50.7135 160.51 49.2188 161.156 47.9062C161.802 46.5938 162.729 45.5781 163.938 44.8594C165.156 44.1406 166.568 43.7812 168.172 43.7812C170.453 43.7812 172.312 44.4792 173.75 45.875C175.198 47.2708 176.005 49.1667 176.172 51.5625L176.203 52.7188C176.203 55.3125 175.479 57.3958 174.031 58.9688C172.583 60.5312 170.641 61.3125 168.203 61.3125C165.766 61.3125 163.818 60.5312 162.359 58.9688C160.911 57.4062 160.188 55.2812 160.188 52.5938V52.3906ZM164.703 52.7188C164.703 54.3229 165.005 55.5521 165.609 56.4062C166.214 57.25 167.078 57.6719 168.203 57.6719C169.297 57.6719 170.151 57.2552 170.766 56.4219C171.38 55.5781 171.688 54.2344 171.688 52.3906C171.688 50.8177 171.38 49.599 170.766 48.7344C170.151 47.8698 169.286 47.4375 168.172 47.4375C167.068 47.4375 166.214 47.8698 165.609 48.7344C165.005 49.5885 164.703 50.9167 164.703 52.7188ZM189.109 59.2812C187.995 60.6354 186.453 61.3125 184.484 61.3125C182.672 61.3125 181.286 60.7917 180.328 59.75C179.38 58.7083 178.896 57.1823 178.875 55.1719V44.0938H183.391V55.0156C183.391 56.776 184.193 57.6562 185.797 57.6562C187.328 57.6562 188.38 57.125 188.953 56.0625V44.0938H193.484V61H189.234L189.109 59.2812ZM206.391 48.3281C205.776 48.2448 205.234 48.2031 204.766 48.2031C203.057 48.2031 201.938 48.7812 201.406 49.9375V61H196.891V44.0938H201.156L201.281 46.1094C202.188 44.5573 203.443 43.7812 205.047 43.7812C205.547 43.7812 206.016 43.849 206.453 43.9844L206.391 48.3281ZM221.953 39.9375V44.0938H224.844V47.4062H221.953V55.8438C221.953 56.4688 222.073 56.9167 222.312 57.1875C222.552 57.4583 223.01 57.5938 223.688 57.5938C224.188 57.5938 224.63 57.5573 225.016 57.4844V60.9062C224.13 61.1771 223.219 61.3125 222.281 61.3125C219.115 61.3125 217.5 59.7135 217.438 56.5156V47.4062H214.969V44.0938H217.438V39.9375H221.953ZM235.141 61.3125C232.661 61.3125 230.641 60.5521 229.078 59.0312C227.526 57.5104 226.75 55.4844 226.75 52.9531V52.5156C226.75 50.8177 227.078 49.3021 227.734 47.9688C228.391 46.625 229.318 45.5938 230.516 44.875C231.724 44.1458 233.099 43.7812 234.641 43.7812C236.953 43.7812 238.771 44.5104 240.094 45.9688C241.427 47.4271 242.094 49.4948 242.094 52.1719V54.0156H231.328C231.474 55.1198 231.911 56.0052 232.641 56.6719C233.38 57.3385 234.312 57.6719 235.438 57.6719C237.177 57.6719 238.536 57.0417 239.516 55.7812L241.734 58.2656C241.057 59.224 240.141 59.974 238.984 60.5156C237.828 61.0469 236.547 61.3125 235.141 61.3125ZM234.625 47.4375C233.729 47.4375 233 47.7396 232.438 48.3438C231.885 48.9479 231.531 49.8125 231.375 50.9375H237.656V50.5781C237.635 49.5781 237.365 48.8073 236.844 48.2656C236.323 47.7135 235.583 47.4375 234.625 47.4375ZM254.469 61C254.26 60.5938 254.109 60.0885 254.016 59.4844C252.922 60.7031 251.5 61.3125 249.75 61.3125C248.094 61.3125 246.719 60.8333 245.625 59.875C244.542 58.9167 244 57.7083 244 56.25C244 54.4583 244.661 53.0833 245.984 52.125C247.318 51.1667 249.24 50.6823 251.75 50.6719H253.828V49.7031C253.828 48.9219 253.625 48.2969 253.219 47.8281C252.823 47.3594 252.193 47.125 251.328 47.125C250.568 47.125 249.969 47.3073 249.531 47.6719C249.104 48.0365 248.891 48.5365 248.891 49.1719H244.375C244.375 48.1927 244.677 47.2865 245.281 46.4531C245.885 45.6198 246.74 44.9688 247.844 44.5C248.948 44.0208 250.188 43.7812 251.562 43.7812C253.646 43.7812 255.297 44.3073 256.516 45.3594C257.745 46.401 258.359 47.8698 258.359 49.7656V57.0938C258.37 58.6979 258.594 59.9115 259.031 60.7344V61H254.469ZM250.734 57.8594C251.401 57.8594 252.016 57.7135 252.578 57.4219C253.141 57.1198 253.557 56.7188 253.828 56.2188V53.3125H252.141C249.88 53.3125 248.677 54.0938 248.531 55.6562L248.516 55.9219C248.516 56.4844 248.714 56.9479 249.109 57.3125C249.505 57.6771 250.047 57.8594 250.734 57.8594ZM266.062 44.0938L266.203 45.9844C267.401 44.5156 269.021 43.7812 271.062 43.7812C273.24 43.7812 274.734 44.6406 275.547 46.3594C276.734 44.6406 278.427 43.7812 280.625 43.7812C282.458 43.7812 283.823 44.3177 284.719 45.3906C285.615 46.4531 286.062 48.0573 286.062 50.2031V61H281.531V50.2188C281.531 49.2604 281.344 48.5625 280.969 48.125C280.594 47.6771 279.932 47.4531 278.984 47.4531C277.63 47.4531 276.693 48.099 276.172 49.3906L276.188 61H271.672V50.2344C271.672 49.2552 271.479 48.5469 271.094 48.1094C270.708 47.6719 270.052 47.4531 269.125 47.4531C267.844 47.4531 266.917 47.9844 266.344 49.0469V61H261.828V44.0938H266.062ZM316.165 54.28C316.592 53.1493 317.115 52.1787 317.733 51.368H300.581V48.744H317.733C317.136 47.9333 316.624 46.9627 316.197 45.832H318.629C319.952 47.3893 321.403 48.5733 322.981 49.384V50.76C321.403 51.528 319.952 52.7013 318.629 54.28H316.165Z" fill="#333231"/>
</svg>
