<svg width="400" height="100" viewBox="0 0 400 100" fill="none" xmlns="http://www.w3.org/2000/svg">
<path d="M399 50C399 56.3317 393.843 62.6501 383.774 68.6014C373.772 74.5131 359.233 79.8717 341.179 84.3852C305.086 93.4084 255.171 99 200 99C144.829 99 94.914 93.4084 58.8212 84.3852C40.7671 79.8717 26.2277 74.5131 16.2258 68.6014C6.15704 62.6501 1 56.3317 1 50C1 43.6683 6.15704 37.3499 16.2258 31.3986C26.2277 25.4869 40.7671 20.1283 58.8212 15.6148C94.914 6.59161 144.829 1 200 1C255.171 1 305.086 6.59161 341.179 15.6148C359.233 20.1283 373.772 25.4869 383.774 31.3986C393.843 37.3499 399 43.6683 399 50Z" stroke="#333231" stroke-width="2"/>
<path d="M116.234 61L118.594 47.4062H116.156L116.734 44.0938L119.172 44.0781L119.391 42.3906C119.661 40.5885 120.396 39.1771 121.594 38.1562C122.792 37.125 124.318 36.6198 126.172 36.6406C126.807 36.6615 127.604 36.7708 128.562 36.9688L128.172 40.4844C127.672 40.3594 127.24 40.2969 126.875 40.2969C126.094 40.2865 125.422 40.4844 124.859 40.8906C124.307 41.2969 123.964 41.9062 123.828 42.7188L123.594 44.0938H126.859L126.281 47.4062H123.031L120.672 61H116.234ZM136 43.7812C137.49 43.8021 138.771 44.1875 139.844 44.9375C140.927 45.6771 141.719 46.7031 142.219 48.0156C142.729 49.3177 142.911 50.7656 142.766 52.3594C142.526 55.0469 141.589 57.224 139.953 58.8906C138.328 60.5469 136.318 61.3542 133.922 61.3125C132.453 61.2917 131.182 60.9167 130.109 60.1875C129.036 59.4479 128.245 58.4271 127.734 57.125C127.224 55.8229 127.042 54.3854 127.188 52.8125C127.458 50.0208 128.406 47.8021 130.031 46.1562C131.656 44.5104 133.646 43.7188 136 43.7812ZM131.547 54.4219C131.568 55.4219 131.802 56.2135 132.25 56.7969C132.698 57.3698 133.328 57.6667 134.141 57.6875C135.495 57.7292 136.557 57.1094 137.328 55.8281C138.099 54.5365 138.458 52.8438 138.406 50.75C138.365 49.75 138.12 48.9531 137.672 48.3594C137.234 47.7552 136.604 47.4427 135.781 47.4219C134.469 47.3802 133.417 48 132.625 49.2812C131.844 50.5521 131.484 52.2656 131.547 54.4219ZM155.625 48.3281C155.021 48.224 154.526 48.1719 154.141 48.1719C152.568 48.1302 151.323 48.7188 150.406 49.9375L148.453 61H144.047L146.984 44.0938L151.125 44.0781L150.719 46.1406C151.781 44.5469 153.094 43.75 154.656 43.75C155.094 43.75 155.604 43.8229 156.188 43.9688L155.625 48.3281ZM172.391 39.9375L171.656 44.0938H174.469L173.891 47.4062H171.078L169.641 55.875C169.578 56.4062 169.62 56.8125 169.766 57.0938C169.911 57.375 170.266 57.526 170.828 57.5469C170.995 57.5573 171.443 57.5312 172.172 57.4688L171.859 60.9219C171.078 61.1823 170.234 61.3021 169.328 61.2812C167.88 61.2604 166.802 60.8073 166.094 59.9219C165.385 59.0365 165.094 57.8385 165.219 56.3281L166.672 47.4062H164.281L164.859 44.0938H167.25L167.969 39.9375H172.391ZM180.828 45.9688C182.151 44.4896 183.677 43.7604 185.406 43.7812C187.083 43.8229 188.312 44.4271 189.094 45.5938C189.885 46.75 190.182 48.3333 189.984 50.3438L188.203 61H183.797L185.594 50.2969C185.646 49.8906 185.656 49.5156 185.625 49.1719C185.521 48.0469 184.865 47.4688 183.656 47.4375C182.469 47.3958 181.427 47.9062 180.531 48.9688L178.406 61H174L178.156 37H182.578L180.828 45.9688ZM199.672 61.3125C198.193 61.3021 196.88 60.9427 195.734 60.2344C194.599 59.5156 193.75 58.5365 193.188 57.2969C192.625 56.0469 192.406 54.6719 192.531 53.1719L192.578 52.5469C192.734 50.901 193.214 49.3906 194.016 48.0156C194.818 46.6406 195.849 45.5833 197.109 44.8438C198.37 44.0938 199.766 43.7396 201.297 43.7812C203.474 43.8229 205.12 44.625 206.234 46.1875C207.359 47.7396 207.786 49.7083 207.516 52.0938L207.266 54.0156H196.906C196.865 55.1094 197.13 55.9844 197.703 56.6406C198.276 57.2969 199.057 57.6354 200.047 57.6562C201.651 57.6979 203.057 57.0781 204.266 55.7969L206.281 58.2969C205.646 59.2552 204.729 60.0052 203.531 60.5469C202.333 61.0781 201.047 61.3333 199.672 61.3125ZM201.078 47.4219C200.266 47.401 199.542 47.6562 198.906 48.1875C198.281 48.7188 197.719 49.6406 197.219 50.9531H203.281L203.375 50.5469C203.438 50.1302 203.443 49.7344 203.391 49.3594C203.286 48.7552 203.031 48.2865 202.625 47.9531C202.219 47.6094 201.703 47.4323 201.078 47.4219ZM223.797 54.2656L221.75 56.0469L220.891 61H216.484L220.641 37H225.062L222.781 50.0312L223.641 49.1094L228.656 44.0938H234.312L226.922 51.3594L231.625 61H226.797L223.797 54.2656ZM237.891 61H233.453L236.391 44.0938H240.828L237.891 61ZM236.906 39.7969C236.885 39.099 237.115 38.5208 237.594 38.0625C238.073 37.6042 238.651 37.375 239.328 37.375C239.995 37.3542 240.573 37.5573 241.062 37.9844C241.552 38.4115 241.807 38.9635 241.828 39.6406C241.849 40.2865 241.63 40.849 241.172 41.3281C240.724 41.8073 240.135 42.0573 239.406 42.0781C238.75 42.099 238.172 41.901 237.672 41.4844C237.182 41.0677 236.927 40.5052 236.906 39.7969ZM250.031 43.7656C251.604 43.8073 252.875 44.4375 253.844 45.6562L255.5 37H259.922L255.766 61H251.828L252.078 59.1875C250.818 60.6562 249.349 61.3698 247.672 61.3281C246.62 61.3177 245.698 61.0417 244.906 60.5C244.115 59.9583 243.5 59.1823 243.062 58.1719C242.635 57.151 242.401 56.0156 242.359 54.7656C242.328 54.1094 242.344 53.474 242.406 52.8594L242.5 52.1562C242.75 50.4271 243.229 48.9062 243.938 47.5938C244.656 46.2812 245.531 45.3073 246.562 44.6719C247.604 44.0365 248.76 43.7344 250.031 43.7656ZM246.828 52.8594C246.745 53.651 246.719 54.3177 246.75 54.8594C246.854 56.6927 247.594 57.625 248.969 57.6562C250.208 57.7083 251.286 57.125 252.203 55.9062L253.406 49.1875C253 48.0729 252.188 47.4896 250.969 47.4375C249.896 47.4062 249 47.8229 248.281 48.6875C247.573 49.5417 247.089 50.9323 246.828 52.8594ZM269.094 56.2344C269.26 55.401 268.682 54.7969 267.359 54.4219L265.938 54.0625C262.573 53.1354 260.938 51.5 261.031 49.1562C261.083 47.5625 261.786 46.2656 263.141 45.2656C264.505 44.2552 266.146 43.7604 268.062 43.7812C269.969 43.8021 271.51 44.3073 272.688 45.2969C273.865 46.2865 274.464 47.6042 274.484 49.25L270.109 49.2344C270.13 47.7865 269.411 47.0521 267.953 47.0312C267.266 47.0312 266.667 47.2031 266.156 47.5469C265.656 47.8906 265.349 48.3542 265.234 48.9375C265.078 49.7708 265.708 50.3594 267.125 50.7031L267.75 50.8438C269.188 51.1875 270.286 51.5833 271.047 52.0312C271.807 52.4688 272.391 53.0156 272.797 53.6719C273.214 54.3281 273.406 55.1146 273.375 56.0312C273.344 57.1042 272.995 58.0417 272.328 58.8438C271.672 59.6458 270.766 60.2656 269.609 60.7031C268.464 61.1406 267.255 61.3438 265.984 61.3125C264.109 61.2917 262.547 60.7552 261.297 59.7031C260.047 58.6406 259.411 57.2708 259.391 55.5938L263.547 55.625C263.589 57.2396 264.453 58.0573 266.141 58.0781C266.953 58.0781 267.62 57.9115 268.141 57.5781C268.672 57.2448 268.99 56.7969 269.094 56.2344ZM281.141 54.0156H277.469L279.688 38.25H284.391L281.141 54.0156ZM276.016 58.9531C275.995 58.2656 276.214 57.6875 276.672 57.2188C277.13 56.7396 277.714 56.4896 278.422 56.4688C279.089 56.4479 279.667 56.6562 280.156 57.0938C280.646 57.5208 280.901 58.0833 280.922 58.7812C280.943 59.4688 280.724 60.0521 280.266 60.5312C279.807 61.0104 279.219 61.2604 278.5 61.2812C277.771 61.2812 277.172 61.0521 276.703 60.5938C276.245 60.1354 276.016 59.5885 276.016 58.9531Z" fill="#333231"/>
</svg>
