<svg width="32" height="32" viewBox="0 0 32 32" fill="none" xmlns="http://www.w3.org/2000/svg">
<path fill-rule="evenodd" clip-rule="evenodd" d="M2.66665 8.00002C2.66665 6.58553 3.22855 5.22898 4.22874 4.22878C5.22894 3.22859 6.58549 2.66669 7.99998 2.66669H24C25.4145 2.66669 26.771 3.22859 27.7712 4.22878C28.7714 5.22898 29.3333 6.58553 29.3333 8.00002V24C29.3333 25.4145 28.7714 26.7711 27.7712 27.7713C26.771 28.7715 25.4145 29.3334 24 29.3334H7.99998C6.58549 29.3334 5.22894 28.7715 4.22874 27.7713C3.22855 26.7711 2.66665 25.4145 2.66665 24V8.00002ZM7.99998 5.33335C7.29274 5.33335 6.61446 5.61431 6.11436 6.1144C5.61427 6.6145 5.33331 7.29278 5.33331 8.00002V24C5.33331 24.7073 5.61427 25.3855 6.11436 25.8856C6.61446 26.3857 7.29274 26.6667 7.99998 26.6667H24C24.7072 26.6667 25.3855 26.3857 25.8856 25.8856C26.3857 25.3855 26.6666 24.7073 26.6666 24V8.00002C26.6666 7.29278 26.3857 6.6145 25.8856 6.1144C25.3855 5.61431 24.7072 5.33335 24 5.33335H7.99998ZM16 12C14.9391 12 13.9217 12.4214 13.1716 13.1716C12.4214 13.9217 12 14.9392 12 16C12 17.0609 12.4214 18.0783 13.1716 18.8284C13.9217 19.5786 14.9391 20 16 20C17.0608 20 18.0783 19.5786 18.8284 18.8284C19.5786 18.0783 20 17.0609 20 16C20 14.9392 19.5786 13.9217 18.8284 13.1716C18.0783 12.4214 17.0608 12 16 12ZM9.33331 16C9.33331 14.2319 10.0357 12.5362 11.2859 11.286C12.5362 10.0357 14.2319 9.33335 16 9.33335C17.7681 9.33335 19.4638 10.0357 20.714 11.286C21.9643 12.5362 22.6666 14.2319 22.6666 16C22.6666 17.7681 21.9643 19.4638 20.714 20.7141C19.4638 21.9643 17.7681 22.6667 16 22.6667C14.2319 22.6667 12.5362 21.9643 11.2859 20.7141C10.0357 19.4638 9.33331 17.7681 9.33331 16V16ZM23.3333 10.6667C23.8637 10.6667 24.3725 10.456 24.7475 10.0809C25.1226 9.70583 25.3333 9.19712 25.3333 8.66669C25.3333 8.13625 25.1226 7.62755 24.7475 7.25247C24.3725 6.8774 23.8637 6.66669 23.3333 6.66669C22.8029 6.66669 22.2942 6.8774 21.9191 7.25247C21.544 7.62755 21.3333 8.13625 21.3333 8.66669C21.3333 9.19712 21.544 9.70583 21.9191 10.0809C22.2942 10.456 22.8029 10.6667 23.3333 10.6667Z" fill="#333231"/>
</svg>
